<svg xmlns="http://www.w3.org/2000/svg" xmlns:xlink="http://www.w3.org/1999/xlink" id="terminal" baseProfile="full" viewBox="0 0 640 427" width="640" version="1.1">
    <defs>
        <termtosvg:template_settings xmlns:termtosvg="https://github.com/nbedos/termtosvg">
            <termtosvg:screen_geometry columns="80" rows="25"/>
            <termtosvg:animation type="css"/>
        </termtosvg:template_settings>
        <style type="text/css" id="generated-style"><![CDATA[#screen {
                font-family: 'DejaVu Sans Mono', monospace;
                font-style: normal;
                font-size: 14px;
            }

        text {
            dominant-baseline: text-before-edge;
            white-space: pre;
        }
    
            :root {
                --animation-duration: 11549ms;
            }

            @keyframes roll {
                0.000%{transform:translateY(0px)}
0.199%{transform:translateY(-442px)}
0.208%{transform:translateY(-884px)}
7.377%{transform:translateY(-1326px)}
8.442%{transform:translateY(-1768px)}
9.966%{transform:translateY(-2210px)}
9.975%{transform:translateY(-2652px)}
10.001%{transform:translateY(-3094px)}
10.174%{transform:translateY(-3536px)}
10.191%{transform:translateY(-3978px)}
24.617%{transform:translateY(-4420px)}
25.742%{transform:translateY(-4862px)}
27.327%{transform:translateY(-5304px)}
28.955%{transform:translateY(-5746px)}
31.033%{transform:translateY(-6188px)}
32.626%{transform:translateY(-6630px)}
36.410%{transform:translateY(-7072px)}
37.518%{transform:translateY(-7514px)}
37.666%{transform:translateY(-7956px)}
37.709%{transform:translateY(-8398px)}
37.735%{transform:translateY(-8840px)}
44.774%{transform:translateY(-9282px)}
44.792%{transform:translateY(-9724px)}
44.800%{transform:translateY(-10166px)}
44.965%{transform:translateY(-10608px)}
45.008%{transform:translateY(-11050px)}
52.818%{transform:translateY(-11492px)}
52.853%{transform:translateY(-11934px)}
57.754%{transform:translateY(-12376px)}
60.473%{transform:translateY(-12818px)}
61.564%{transform:translateY(-13260px)}
64.300%{transform:translateY(-13702px)}
66.291%{transform:translateY(-14144px)}
68.153%{transform:translateY(-14586px)}
71.010%{transform:translateY(-15028px)}
71.080%{transform:translateY(-15470px)}
71.114%{transform:translateY(-15912px)}
71.140%{transform:translateY(-16354px)}
76.275%{transform:translateY(-16796px)}
76.310%{transform:translateY(-17238px)}
76.440%{transform:translateY(-17680px)}
76.465%{transform:translateY(-18122px)}
76.630%{transform:translateY(-18564px)}
76.682%{transform:translateY(-19006px)}
91.341%{transform:translateY(-19448px)}
100.000%{transform:translateY(-19448px)}
            }

            #screen_view {
                animation-duration: 11549ms;
                animation-iteration-count:infinite;
                animation-name:roll;
                animation-timing-function: steps(1,end);
                animation-fill-mode: forwards;
            }
        ]]></style>
        <style type="text/css" id="user-style">
            /* The colors defined below are the default 16 colors used for rendering text of the terminal. Adjust
               them as needed.
               PowerShell colors based on https://en.wikipedia.org/wiki/ANSI_escape_code#Colors */
            .foreground {fill: #cccccc;}
            .background {fill: #0c0c0c;}
            .color0 {fill: #0c0c0c;}
            .color1 {fill: #c50f1f;}
            .color2 {fill: #13a10e;}
            .color3 {fill: #c19c00;}
            .color4 {fill: #0037da;}
            .color5 {fill: #881798;}
            .color6 {fill: #3a96dd;}
            .color7 {fill: #cccccc;}
            .color8 {fill: #767676;}
            .color9 {fill: #e74856;}
            .color10 {fill: #16c60c;}
            .color11 {fill: #f9f1a5;}
            .color12 {fill: #3b78ff;}
            .color13 {fill: #b4009e;}
            .color14 {fill: #61d6d6;}
            .color15 {fill: #f2f2f2;}
        </style>
    </defs>
    <svg id="screen" width="640" height="425" viewBox="0 0 640 425" preserveAspectRatio="xMidYMin slice">
    <rect class="background" height="100%" width="100%" x="0" y="0"/><defs><g id="g1"><text x="0" textLength="8" class="background"> </text><text x="8" textLength="632" class="foreground">                                                                               </text></g><g id="g2"><text x="0" textLength="640" class="foreground">                                                                                </text></g><g id="g3"><text x="0" textLength="8" font-weight="bold" class="color12">#</text><text x="8" textLength="8" class="foreground"> </text><text x="16" textLength="32" class="color0">root</text><text x="48" textLength="24" class="foreground"> @ </text><text x="72" textLength="24" class="color2">sg </text><text x="96" textLength="24" class="foreground">in </text><text x="120" textLength="8" font-weight="bold" class="color11">~</text><text x="128" textLength="96" class="foreground"> [19:58:39] </text></g><g id="g4"><text x="0" textLength="16" font-weight="bold" class="color9">$ </text><text x="16" textLength="8" class="background"> </text><text x="24" textLength="616" class="foreground">                                                                             </text></g><g id="g5"><text x="0" textLength="16" font-weight="bold" class="color9">$ </text><text x="16" textLength="8" class="color2">l</text><text x="24" textLength="8" class="background">s</text><text x="32" textLength="608" class="foreground">                                                                            </text></g><g id="g6"><text x="0" textLength="16" font-weight="bold" class="color9">$ </text><text x="16" textLength="16" class="color2">ls</text><text x="32" textLength="8" class="background"> </text><text x="40" textLength="600" class="foreground">                                                                           </text></g><g id="g7"><text x="0" textLength="16" font-weight="bold" class="color9">$ </text><text x="16" textLength="16" class="color2">ls</text><text x="32" textLength="608" class="foreground">                                                                            </text></g><g id="g8"><text x="0" textLength="8" class="background"> </text></g><g id="g9"><text x="0" textLength="16" font-weight="bold" class="color12">ar</text><text x="16" textLength="56" class="foreground">  cfg  </text><text x="72" textLength="32" font-weight="bold" class="color12">cron</text><text x="104" textLength="16" class="foreground">  </text><text x="120" textLength="16" font-weight="bold" class="color12">go</text><text x="136" textLength="16" class="foreground">  </text><text x="152" textLength="40" font-weight="bold" class="color12">hello</text><text x="192" textLength="16" class="foreground">  </text><text x="208" textLength="32" font-weight="bold" class="color12">proj</text><text x="240" textLength="16" class="foreground">  </text><text x="256" textLength="48" font-weight="bold" class="color13">sc.svg</text><text x="304" textLength="16" class="foreground">  </text><text x="320" textLength="16" font-weight="bold" class="color12">sh</text><text x="336" textLength="16" class="foreground">  </text><text x="352" textLength="32" font-weight="bold" class="color12">test</text><text x="384" textLength="24" class="foreground">  v</text></g><g id="g10"><text x="0" textLength="8" font-weight="bold" class="color12">#</text><text x="8" textLength="8" class="foreground"> </text><text x="16" textLength="32" class="color0">root</text><text x="48" textLength="24" class="foreground"> @ </text><text x="72" textLength="24" class="color2">sg </text><text x="96" textLength="24" class="foreground">in </text><text x="120" textLength="8" font-weight="bold" class="color11">~</text><text x="128" textLength="96" class="foreground"> [19:58:40] </text></g><g id="g11"><text x="0" textLength="24" font-weight="bold" class="color9">$ h</text><text x="24" textLength="8" class="background"> </text><text x="32" textLength="608" class="foreground">                                                                            </text></g><g id="g12"><text x="0" textLength="32" font-weight="bold" class="color9">$ he</text><text x="32" textLength="8" class="background"> </text><text x="40" textLength="600" class="foreground">                                                                           </text></g><g id="g13"><text x="0" textLength="40" font-weight="bold" class="color9">$ hea</text><text x="40" textLength="8" class="background"> </text><text x="48" textLength="592" class="foreground">                                                                          </text></g><g id="g14"><text x="0" textLength="16" font-weight="bold" class="color9">$ </text><text x="16" textLength="32" class="color2">head</text><text x="48" textLength="8" class="background"> </text><text x="56" textLength="584" class="foreground">                                                                         </text></g><g id="g15"><text x="0" textLength="16" font-weight="bold" class="color9">$ </text><text x="16" textLength="32" class="color2">head</text><text x="48" textLength="8" class="foreground"> </text><text x="56" textLength="8" class="background"> </text><text x="64" textLength="576" class="foreground">                                                                        </text></g><g id="g16"><text x="0" textLength="16" font-weight="bold" class="color9">$ </text><text x="16" textLength="32" class="color2">head</text><text x="48" textLength="16" class="foreground"> c</text><text x="64" textLength="8" class="background"> </text><text x="72" textLength="568" class="foreground">                                                                       </text></g><g id="g17"><text x="0" textLength="16" font-weight="bold" class="color9">$ </text><text x="16" textLength="32" class="color2">head</text><text x="48" textLength="24" class="foreground"> cf</text><text x="72" textLength="8" class="background"> </text><text x="80" textLength="560" class="foreground">                                                                      </text></g><g id="g18"><text x="0" textLength="16" font-weight="bold" class="color9">$ </text><text x="16" textLength="32" class="color2">head</text><text x="48" textLength="592" class="foreground"> cf                                                                       </text></g><g id="g19"><text x="0" textLength="8" font-weight="bold" class="color12">#</text><text x="8" textLength="8" class="foreground"> </text><text x="16" textLength="32" class="color0">root</text><text x="48" textLength="24" class="foreground"> @ </text><text x="72" textLength="24" class="color2">sg </text><text x="96" textLength="24" class="foreground">in </text><text x="120" textLength="8" font-weight="bold" class="color11">~</text><text x="128" textLength="96" class="foreground"> [19:58:44] </text></g><g id="g20"><text x="0" textLength="16" font-weight="bold" class="color9">$ </text><text x="16" textLength="32" class="color2">head</text><text x="48" textLength="8" class="foreground"> </text><text x="56" textLength="24" class="color5">cfg</text><text x="80" textLength="8" font-weight="bold" class="foreground"> </text><text x="88" textLength="8" class="background"> </text><text x="96" textLength="544" class="foreground">                                                                    </text></g><g id="g21"><text x="0" textLength="16" font-weight="bold" class="color9">$ </text><text x="16" textLength="32" class="color2">head</text><text x="48" textLength="8" class="foreground"> </text><text x="56" textLength="24" class="color5">cfg</text><text x="80" textLength="8" class="background"> </text><text x="88" textLength="552" class="foreground">                                                                     </text></g><g id="g22"><text x="0" textLength="16" font-weight="bold" class="color9">$ </text><text x="16" textLength="32" class="color2">head</text><text x="48" textLength="8" class="foreground"> </text><text x="56" textLength="24" class="color5">cfg</text><text x="80" textLength="560" class="foreground">                                                                      </text></g><g id="g23"><text x="0" textLength="8" class="foreground">#</text></g><g id="g24"><text x="0" textLength="352" class="foreground"># Automatically generated file; DO NOT EDIT.</text></g><g id="g25"><text x="0" textLength="304" class="foreground"># Linux/x86 6.1.7 Kernel Configuration</text></g><g id="g26"><text x="0" textLength="472" class="foreground">CONFIG_CC_VERSION_TEXT="gcc (Ubuntu 9.3.0-10ubuntu2) 9.3.0"</text></g><g id="g27"><text x="0" textLength="144" class="foreground">CONFIG_CC_IS_GCC=y</text></g><g id="g28"><text x="0" textLength="192" class="foreground">CONFIG_GCC_VERSION=90300</text></g><g id="g29"><text x="0" textLength="176" class="foreground">CONFIG_CLANG_VERSION=0</text></g><g id="g30"><text x="0" textLength="144" class="foreground">CONFIG_AS_IS_GNU=y</text></g><g id="g31"><text x="0" textLength="184" class="foreground">CONFIG_AS_VERSION=23400</text></g><g id="g32"><text x="0" textLength="24" font-weight="bold" class="color9">$ f</text><text x="24" textLength="8" class="background"> </text><text x="32" textLength="608" class="foreground">                                                                            </text></g><g id="g33"><text x="0" textLength="24" font-weight="bold" class="color9">$ f</text><text x="24" textLength="8" class="background">a</text><text x="32" textLength="128" class="color8">st-theme default</text><text x="160" textLength="480" class="foreground">                                                            </text></g><g id="g34"><text x="0" textLength="16" font-weight="bold" class="color9">$ </text><text x="16" textLength="16" class="color3">fi</text><text x="32" textLength="8" class="background"> </text><text x="40" textLength="600" class="foreground">                                                                           </text></g><g id="g35"><text x="0" textLength="40" font-weight="bold" class="color9">$ fil</text><text x="40" textLength="8" class="background"> </text><text x="48" textLength="592" class="foreground">                                                                          </text></g><g id="g36"><text x="0" textLength="16" font-weight="bold" class="color9">$ </text><text x="16" textLength="32" class="color2">file</text><text x="48" textLength="8" class="background"> </text><text x="56" textLength="584" class="foreground">                                                                         </text></g><g id="g37"><text x="0" textLength="16" font-weight="bold" class="color9">$ </text><text x="16" textLength="32" class="color2">file</text><text x="48" textLength="8" class="foreground"> </text><text x="56" textLength="8" class="background"> </text><text x="64" textLength="576" class="foreground">                                                                        </text></g><g id="g38"><text x="0" textLength="16" font-weight="bold" class="color9">$ </text><text x="16" textLength="32" class="color2">file</text><text x="48" textLength="16" class="foreground"> s</text><text x="64" textLength="8" class="background"> </text><text x="72" textLength="568" class="foreground">                                                                       </text></g><g id="g39"><text x="0" textLength="16" font-weight="bold" class="color9">$ </text><text x="16" textLength="32" class="color2">file</text><text x="48" textLength="24" class="foreground"> sc</text><text x="72" textLength="8" class="background"> </text><text x="80" textLength="560" class="foreground">                                                                      </text></g><g id="g40"><text x="0" textLength="16" font-weight="bold" class="color9">$ </text><text x="16" textLength="32" class="color2">file</text><text x="48" textLength="592" class="foreground"> sc                                                                       </text></g><g id="g41"><text x="0" textLength="8" font-weight="bold" class="color12">#</text><text x="8" textLength="8" class="foreground"> </text><text x="16" textLength="32" class="color0">root</text><text x="48" textLength="24" class="foreground"> @ </text><text x="72" textLength="24" class="color2">sg </text><text x="96" textLength="24" class="foreground">in </text><text x="120" textLength="8" font-weight="bold" class="color11">~</text><text x="128" textLength="96" class="foreground"> [19:58:47] </text></g><g id="g42"><text x="0" textLength="16" font-weight="bold" class="color9">$ </text><text x="16" textLength="32" class="color2">file</text><text x="48" textLength="8" class="foreground"> </text><text x="56" textLength="48" class="color5">sc.svg</text><text x="104" textLength="8" font-weight="bold" class="foreground"> </text><text x="112" textLength="8" class="background"> </text><text x="120" textLength="520" class="foreground">                                                                 </text></g><g id="g43"><text x="0" textLength="16" font-weight="bold" class="color9">$ </text><text x="16" textLength="32" class="color2">file</text><text x="48" textLength="8" class="foreground"> </text><text x="56" textLength="48" class="color5">sc.svg</text><text x="104" textLength="8" class="background"> </text><text x="112" textLength="528" class="foreground">                                                                  </text></g><g id="g44"><text x="0" textLength="16" font-weight="bold" class="color9">$ </text><text x="16" textLength="32" class="color2">file</text><text x="48" textLength="8" class="foreground"> </text><text x="56" textLength="48" class="color5">sc.svg</text><text x="104" textLength="536" class="foreground">                                                                   </text></g><g id="g45"><text x="0" textLength="336" class="foreground">sc.svg: SVG Scalable Vector Graphics image</text></g><g id="g46"><text x="0" textLength="8" font-weight="bold" class="color12">#</text><text x="8" textLength="8" class="foreground"> </text><text x="16" textLength="32" class="color0">root</text><text x="48" textLength="24" class="foreground"> @ </text><text x="72" textLength="24" class="color2">sg </text><text x="96" textLength="24" class="foreground">in </text><text x="120" textLength="8" font-weight="bold" class="color11">~</text><text x="128" textLength="96" class="foreground"> [19:58:48] </text></g><g id="g47"><text x="0" textLength="16" font-weight="bold" class="color9">$ </text><text x="16" textLength="624" class="foreground">                                                                              </text></g></defs><g id="screen_view"><g><rect x="0" y="0" width="8" height="17" class="foreground"/><use xlink:href="#g1" y="0"/></g><g><use xlink:href="#g2" y="442"/><rect x="16" y="459" width="32" height="17" class="color3"/><use xlink:href="#g3" y="459"/><rect x="16" y="476" width="8" height="17" class="foreground"/><use xlink:href="#g4" y="476"/></g><g><use xlink:href="#g2" y="884"/><rect x="16" y="901" width="32" height="17" class="color3"/><use xlink:href="#g3" y="901"/><rect x="16" y="918" width="8" height="17" class="foreground"/><use xlink:href="#g4" y="918"/></g><g><use xlink:href="#g2" y="1326"/><rect x="16" y="1343" width="32" height="17" class="color3"/><use xlink:href="#g3" y="1343"/><rect x="24" y="1360" width="8" height="17" class="foreground"/><use xlink:href="#g5" y="1360"/></g><g><use xlink:href="#g2" y="1768"/><rect x="16" y="1785" width="32" height="17" class="color3"/><use xlink:href="#g3" y="1785"/><rect x="32" y="1802" width="8" height="17" class="foreground"/><use xlink:href="#g6" y="1802"/></g><g><use xlink:href="#g2" y="2210"/><rect x="16" y="2227" width="32" height="17" class="color3"/><use xlink:href="#g3" y="2227"/><rect x="32" y="2244" width="8" height="17" class="foreground"/><use xlink:href="#g6" y="2244"/></g><g><use xlink:href="#g2" y="2652"/><rect x="16" y="2669" width="32" height="17" class="color3"/><use xlink:href="#g3" y="2669"/><use xlink:href="#g7" y="2686"/><rect x="0" y="2703" width="8" height="17" class="foreground"/><use xlink:href="#g8" y="2703"/></g><g><use xlink:href="#g2" y="3094"/><rect x="16" y="3111" width="32" height="17" class="color3"/><use xlink:href="#g3" y="3111"/><use xlink:href="#g7" y="3128"/><use xlink:href="#g9" y="3145"/><rect x="0" y="3162" width="8" height="17" class="foreground"/><use xlink:href="#g1" y="3162"/></g><g><use xlink:href="#g2" y="3536"/><rect x="16" y="3553" width="32" height="17" class="color3"/><use xlink:href="#g3" y="3553"/><use xlink:href="#g7" y="3570"/><use xlink:href="#g9" y="3587"/><use xlink:href="#g2" y="3604"/><rect x="16" y="3621" width="32" height="17" class="color3"/><use xlink:href="#g10" y="3621"/><rect x="16" y="3638" width="8" height="17" class="foreground"/><use xlink:href="#g4" y="3638"/></g><g><use xlink:href="#g2" y="3978"/><rect x="16" y="3995" width="32" height="17" class="color3"/><use xlink:href="#g3" y="3995"/><use xlink:href="#g7" y="4012"/><use xlink:href="#g9" y="4029"/><use xlink:href="#g2" y="4046"/><rect x="16" y="4063" width="32" height="17" class="color3"/><use xlink:href="#g10" y="4063"/><rect x="16" y="4080" width="8" height="17" class="foreground"/><use xlink:href="#g4" y="4080"/></g><g><use xlink:href="#g2" y="4420"/><rect x="16" y="4437" width="32" height="17" class="color3"/><use xlink:href="#g3" y="4437"/><use xlink:href="#g7" y="4454"/><use xlink:href="#g9" y="4471"/><use xlink:href="#g2" y="4488"/><rect x="16" y="4505" width="32" height="17" class="color3"/><use xlink:href="#g10" y="4505"/><rect x="24" y="4522" width="8" height="17" class="foreground"/><use xlink:href="#g11" y="4522"/></g><g><use xlink:href="#g2" y="4862"/><rect x="16" y="4879" width="32" height="17" class="color3"/><use xlink:href="#g3" y="4879"/><use xlink:href="#g7" y="4896"/><use xlink:href="#g9" y="4913"/><use xlink:href="#g2" y="4930"/><rect x="16" y="4947" width="32" height="17" class="color3"/><use xlink:href="#g10" y="4947"/><rect x="32" y="4964" width="8" height="17" class="foreground"/><use xlink:href="#g12" y="4964"/></g><g><use xlink:href="#g2" y="5304"/><rect x="16" y="5321" width="32" height="17" class="color3"/><use xlink:href="#g3" y="5321"/><use xlink:href="#g7" y="5338"/><use xlink:href="#g9" y="5355"/><use xlink:href="#g2" y="5372"/><rect x="16" y="5389" width="32" height="17" class="color3"/><use xlink:href="#g10" y="5389"/><rect x="40" y="5406" width="8" height="17" class="foreground"/><use xlink:href="#g13" y="5406"/></g><g><use xlink:href="#g2" y="5746"/><rect x="16" y="5763" width="32" height="17" class="color3"/><use xlink:href="#g3" y="5763"/><use xlink:href="#g7" y="5780"/><use xlink:href="#g9" y="5797"/><use xlink:href="#g2" y="5814"/><rect x="16" y="5831" width="32" height="17" class="color3"/><use xlink:href="#g10" y="5831"/><rect x="48" y="5848" width="8" height="17" class="foreground"/><use xlink:href="#g14" y="5848"/></g><g><use xlink:href="#g2" y="6188"/><rect x="16" y="6205" width="32" height="17" class="color3"/><use xlink:href="#g3" y="6205"/><use xlink:href="#g7" y="6222"/><use xlink:href="#g9" y="6239"/><use xlink:href="#g2" y="6256"/><rect x="16" y="6273" width="32" height="17" class="color3"/><use xlink:href="#g10" y="6273"/><rect x="56" y="6290" width="8" height="17" class="foreground"/><use xlink:href="#g15" y="6290"/></g><g><use xlink:href="#g2" y="6630"/><rect x="16" y="6647" width="32" height="17" class="color3"/><use xlink:href="#g3" y="6647"/><use xlink:href="#g7" y="6664"/><use xlink:href="#g9" y="6681"/><use xlink:href="#g2" y="6698"/><rect x="16" y="6715" width="32" height="17" class="color3"/><use xlink:href="#g10" y="6715"/><rect x="64" y="6732" width="8" height="17" class="foreground"/><use xlink:href="#g16" y="6732"/></g><g><use xlink:href="#g2" y="7072"/><rect x="16" y="7089" width="32" height="17" class="color3"/><use xlink:href="#g3" y="7089"/><use xlink:href="#g7" y="7106"/><use xlink:href="#g9" y="7123"/><use xlink:href="#g2" y="7140"/><rect x="16" y="7157" width="32" height="17" class="color3"/><use xlink:href="#g10" y="7157"/><rect x="72" y="7174" width="8" height="17" class="foreground"/><use xlink:href="#g17" y="7174"/></g><g><use xlink:href="#g2" y="7514"/><rect x="16" y="7531" width="32" height="17" class="color3"/><use xlink:href="#g3" y="7531"/><use xlink:href="#g7" y="7548"/><use xlink:href="#g9" y="7565"/><use xlink:href="#g2" y="7582"/><rect x="16" y="7599" width="32" height="17" class="color3"/><use xlink:href="#g10" y="7599"/><use xlink:href="#g18" y="7616"/></g><g><use xlink:href="#g2" y="7956"/><rect x="16" y="7973" width="32" height="17" class="color3"/><use xlink:href="#g3" y="7973"/><use xlink:href="#g7" y="7990"/><use xlink:href="#g9" y="8007"/><use xlink:href="#g2" y="8024"/><rect x="16" y="8041" width="32" height="17" class="color3"/><use xlink:href="#g19" y="8041"/><use xlink:href="#g18" y="8058"/></g><g><use xlink:href="#g2" y="8398"/><rect x="16" y="8415" width="32" height="17" class="color3"/><use xlink:href="#g3" y="8415"/><use xlink:href="#g7" y="8432"/><use xlink:href="#g9" y="8449"/><use xlink:href="#g2" y="8466"/><rect x="16" y="8483" width="32" height="17" class="color3"/><use xlink:href="#g19" y="8483"/><rect x="72" y="8500" width="8" height="17" class="foreground"/><use xlink:href="#g17" y="8500"/></g><g><use xlink:href="#g2" y="8840"/><rect x="16" y="8857" width="32" height="17" class="color3"/><use xlink:href="#g3" y="8857"/><use xlink:href="#g7" y="8874"/><use xlink:href="#g9" y="8891"/><use xlink:href="#g2" y="8908"/><rect x="16" y="8925" width="32" height="17" class="color3"/><use xlink:href="#g19" y="8925"/><rect x="88" y="8942" width="8" height="17" class="foreground"/><use xlink:href="#g20" y="8942"/></g><g><use xlink:href="#g2" y="9282"/><rect x="16" y="9299" width="32" height="17" class="color3"/><use xlink:href="#g3" y="9299"/><use xlink:href="#g7" y="9316"/><use xlink:href="#g9" y="9333"/><use xlink:href="#g2" y="9350"/><rect x="16" y="9367" width="32" height="17" class="color3"/><use xlink:href="#g19" y="9367"/><rect x="80" y="9384" width="8" height="17" class="foreground"/><use xlink:href="#g21" y="9384"/></g><g><use xlink:href="#g2" y="9724"/><rect x="16" y="9741" width="32" height="17" class="color3"/><use xlink:href="#g3" y="9741"/><use xlink:href="#g7" y="9758"/><use xlink:href="#g9" y="9775"/><use xlink:href="#g2" y="9792"/><rect x="16" y="9809" width="32" height="17" class="color3"/><use xlink:href="#g19" y="9809"/><use xlink:href="#g22" y="9826"/><rect x="0" y="9843" width="8" height="17" class="foreground"/><use xlink:href="#g8" y="9843"/></g><g><use xlink:href="#g2" y="10166"/><rect x="16" y="10183" width="32" height="17" class="color3"/><use xlink:href="#g3" y="10183"/><use xlink:href="#g7" y="10200"/><use xlink:href="#g9" y="10217"/><use xlink:href="#g2" y="10234"/><rect x="16" y="10251" width="32" height="17" class="color3"/><use xlink:href="#g19" y="10251"/><use xlink:href="#g22" y="10268"/><use xlink:href="#g23" y="10285"/><use xlink:href="#g24" y="10302"/><use xlink:href="#g25" y="10319"/><use xlink:href="#g23" y="10336"/><use xlink:href="#g26" y="10353"/><use xlink:href="#g27" y="10370"/><use xlink:href="#g28" y="10387"/><use xlink:href="#g29" y="10404"/><use xlink:href="#g30" y="10421"/><use xlink:href="#g31" y="10438"/><rect x="0" y="10455" width="8" height="17" class="foreground"/><use xlink:href="#g1" y="10455"/></g><g><use xlink:href="#g2" y="10608"/><rect x="16" y="10625" width="32" height="17" class="color3"/><use xlink:href="#g3" y="10625"/><use xlink:href="#g7" y="10642"/><use xlink:href="#g9" y="10659"/><use xlink:href="#g2" y="10676"/><rect x="16" y="10693" width="32" height="17" class="color3"/><use xlink:href="#g19" y="10693"/><use xlink:href="#g22" y="10710"/><use xlink:href="#g23" y="10727"/><use xlink:href="#g24" y="10744"/><use xlink:href="#g25" y="10761"/><use xlink:href="#g23" y="10778"/><use xlink:href="#g26" y="10795"/><use xlink:href="#g27" y="10812"/><use xlink:href="#g28" y="10829"/><use xlink:href="#g29" y="10846"/><use xlink:href="#g30" y="10863"/><use xlink:href="#g31" y="10880"/><use xlink:href="#g2" y="10897"/><rect x="16" y="10914" width="32" height="17" class="color3"/><use xlink:href="#g19" y="10914"/><rect x="16" y="10931" width="8" height="17" class="foreground"/><use xlink:href="#g4" y="10931"/></g><g><use xlink:href="#g2" y="11050"/><rect x="16" y="11067" width="32" height="17" class="color3"/><use xlink:href="#g3" y="11067"/><use xlink:href="#g7" y="11084"/><use xlink:href="#g9" y="11101"/><use xlink:href="#g2" y="11118"/><rect x="16" y="11135" width="32" height="17" class="color3"/><use xlink:href="#g19" y="11135"/><use xlink:href="#g22" y="11152"/><use xlink:href="#g23" y="11169"/><use xlink:href="#g24" y="11186"/><use xlink:href="#g25" y="11203"/><use xlink:href="#g23" y="11220"/><use xlink:href="#g26" y="11237"/><use xlink:href="#g27" y="11254"/><use xlink:href="#g28" y="11271"/><use xlink:href="#g29" y="11288"/><use xlink:href="#g30" y="11305"/><use xlink:href="#g31" y="11322"/><use xlink:href="#g2" y="11339"/><rect x="16" y="11356" width="32" height="17" class="color3"/><use xlink:href="#g19" y="11356"/><rect x="16" y="11373" width="8" height="17" class="foreground"/><use xlink:href="#g4" y="11373"/></g><g><use xlink:href="#g2" y="11492"/><rect x="16" y="11509" width="32" height="17" class="color3"/><use xlink:href="#g3" y="11509"/><use xlink:href="#g7" y="11526"/><use xlink:href="#g9" y="11543"/><use xlink:href="#g2" y="11560"/><rect x="16" y="11577" width="32" height="17" class="color3"/><use xlink:href="#g19" y="11577"/><use xlink:href="#g22" y="11594"/><use xlink:href="#g23" y="11611"/><use xlink:href="#g24" y="11628"/><use xlink:href="#g25" y="11645"/><use xlink:href="#g23" y="11662"/><use xlink:href="#g26" y="11679"/><use xlink:href="#g27" y="11696"/><use xlink:href="#g28" y="11713"/><use xlink:href="#g29" y="11730"/><use xlink:href="#g30" y="11747"/><use xlink:href="#g31" y="11764"/><use xlink:href="#g2" y="11781"/><rect x="16" y="11798" width="32" height="17" class="color3"/><use xlink:href="#g19" y="11798"/><rect x="24" y="11815" width="8" height="17" class="foreground"/><use xlink:href="#g32" y="11815"/></g><g><use xlink:href="#g2" y="11934"/><rect x="16" y="11951" width="32" height="17" class="color3"/><use xlink:href="#g3" y="11951"/><use xlink:href="#g7" y="11968"/><use xlink:href="#g9" y="11985"/><use xlink:href="#g2" y="12002"/><rect x="16" y="12019" width="32" height="17" class="color3"/><use xlink:href="#g19" y="12019"/><use xlink:href="#g22" y="12036"/><use xlink:href="#g23" y="12053"/><use xlink:href="#g24" y="12070"/><use xlink:href="#g25" y="12087"/><use xlink:href="#g23" y="12104"/><use xlink:href="#g26" y="12121"/><use xlink:href="#g27" y="12138"/><use xlink:href="#g28" y="12155"/><use xlink:href="#g29" y="12172"/><use xlink:href="#g30" y="12189"/><use xlink:href="#g31" y="12206"/><use xlink:href="#g2" y="12223"/><rect x="16" y="12240" width="32" height="17" class="color3"/><use xlink:href="#g19" y="12240"/><rect x="24" y="12257" width="8" height="17" class="foreground"/><use xlink:href="#g33" y="12257"/></g><g><use xlink:href="#g2" y="12376"/><rect x="16" y="12393" width="32" height="17" class="color3"/><use xlink:href="#g3" y="12393"/><use xlink:href="#g7" y="12410"/><use xlink:href="#g9" y="12427"/><use xlink:href="#g2" y="12444"/><rect x="16" y="12461" width="32" height="17" class="color3"/><use xlink:href="#g19" y="12461"/><use xlink:href="#g22" y="12478"/><use xlink:href="#g23" y="12495"/><use xlink:href="#g24" y="12512"/><use xlink:href="#g25" y="12529"/><use xlink:href="#g23" y="12546"/><use xlink:href="#g26" y="12563"/><use xlink:href="#g27" y="12580"/><use xlink:href="#g28" y="12597"/><use xlink:href="#g29" y="12614"/><use xlink:href="#g30" y="12631"/><use xlink:href="#g31" y="12648"/><use xlink:href="#g2" y="12665"/><rect x="16" y="12682" width="32" height="17" class="color3"/><use xlink:href="#g19" y="12682"/><rect x="32" y="12699" width="8" height="17" class="foreground"/><use xlink:href="#g34" y="12699"/></g><g><use xlink:href="#g2" y="12818"/><rect x="16" y="12835" width="32" height="17" class="color3"/><use xlink:href="#g3" y="12835"/><use xlink:href="#g7" y="12852"/><use xlink:href="#g9" y="12869"/><use xlink:href="#g2" y="12886"/><rect x="16" y="12903" width="32" height="17" class="color3"/><use xlink:href="#g19" y="12903"/><use xlink:href="#g22" y="12920"/><use xlink:href="#g23" y="12937"/><use xlink:href="#g24" y="12954"/><use xlink:href="#g25" y="12971"/><use xlink:href="#g23" y="12988"/><use xlink:href="#g26" y="13005"/><use xlink:href="#g27" y="13022"/><use xlink:href="#g28" y="13039"/><use xlink:href="#g29" y="13056"/><use xlink:href="#g30" y="13073"/><use xlink:href="#g31" y="13090"/><use xlink:href="#g2" y="13107"/><rect x="16" y="13124" width="32" height="17" class="color3"/><use xlink:href="#g19" y="13124"/><rect x="40" y="13141" width="8" height="17" class="foreground"/><use xlink:href="#g35" y="13141"/></g><g><use xlink:href="#g2" y="13260"/><rect x="16" y="13277" width="32" height="17" class="color3"/><use xlink:href="#g3" y="13277"/><use xlink:href="#g7" y="13294"/><use xlink:href="#g9" y="13311"/><use xlink:href="#g2" y="13328"/><rect x="16" y="13345" width="32" height="17" class="color3"/><use xlink:href="#g19" y="13345"/><use xlink:href="#g22" y="13362"/><use xlink:href="#g23" y="13379"/><use xlink:href="#g24" y="13396"/><use xlink:href="#g25" y="13413"/><use xlink:href="#g23" y="13430"/><use xlink:href="#g26" y="13447"/><use xlink:href="#g27" y="13464"/><use xlink:href="#g28" y="13481"/><use xlink:href="#g29" y="13498"/><use xlink:href="#g30" y="13515"/><use xlink:href="#g31" y="13532"/><use xlink:href="#g2" y="13549"/><rect x="16" y="13566" width="32" height="17" class="color3"/><use xlink:href="#g19" y="13566"/><rect x="48" y="13583" width="8" height="17" class="foreground"/><use xlink:href="#g36" y="13583"/></g><g><use xlink:href="#g2" y="13702"/><rect x="16" y="13719" width="32" height="17" class="color3"/><use xlink:href="#g3" y="13719"/><use xlink:href="#g7" y="13736"/><use xlink:href="#g9" y="13753"/><use xlink:href="#g2" y="13770"/><rect x="16" y="13787" width="32" height="17" class="color3"/><use xlink:href="#g19" y="13787"/><use xlink:href="#g22" y="13804"/><use xlink:href="#g23" y="13821"/><use xlink:href="#g24" y="13838"/><use xlink:href="#g25" y="13855"/><use xlink:href="#g23" y="13872"/><use xlink:href="#g26" y="13889"/><use xlink:href="#g27" y="13906"/><use xlink:href="#g28" y="13923"/><use xlink:href="#g29" y="13940"/><use xlink:href="#g30" y="13957"/><use xlink:href="#g31" y="13974"/><use xlink:href="#g2" y="13991"/><rect x="16" y="14008" width="32" height="17" class="color3"/><use xlink:href="#g19" y="14008"/><rect x="56" y="14025" width="8" height="17" class="foreground"/><use xlink:href="#g37" y="14025"/></g><g><use xlink:href="#g2" y="14144"/><rect x="16" y="14161" width="32" height="17" class="color3"/><use xlink:href="#g3" y="14161"/><use xlink:href="#g7" y="14178"/><use xlink:href="#g9" y="14195"/><use xlink:href="#g2" y="14212"/><rect x="16" y="14229" width="32" height="17" class="color3"/><use xlink:href="#g19" y="14229"/><use xlink:href="#g22" y="14246"/><use xlink:href="#g23" y="14263"/><use xlink:href="#g24" y="14280"/><use xlink:href="#g25" y="14297"/><use xlink:href="#g23" y="14314"/><use xlink:href="#g26" y="14331"/><use xlink:href="#g27" y="14348"/><use xlink:href="#g28" y="14365"/><use xlink:href="#g29" y="14382"/><use xlink:href="#g30" y="14399"/><use xlink:href="#g31" y="14416"/><use xlink:href="#g2" y="14433"/><rect x="16" y="14450" width="32" height="17" class="color3"/><use xlink:href="#g19" y="14450"/><rect x="64" y="14467" width="8" height="17" class="foreground"/><use xlink:href="#g38" y="14467"/></g><g><use xlink:href="#g2" y="14586"/><rect x="16" y="14603" width="32" height="17" class="color3"/><use xlink:href="#g3" y="14603"/><use xlink:href="#g7" y="14620"/><use xlink:href="#g9" y="14637"/><use xlink:href="#g2" y="14654"/><rect x="16" y="14671" width="32" height="17" class="color3"/><use xlink:href="#g19" y="14671"/><use xlink:href="#g22" y="14688"/><use xlink:href="#g23" y="14705"/><use xlink:href="#g24" y="14722"/><use xlink:href="#g25" y="14739"/><use xlink:href="#g23" y="14756"/><use xlink:href="#g26" y="14773"/><use xlink:href="#g27" y="14790"/><use xlink:href="#g28" y="14807"/><use xlink:href="#g29" y="14824"/><use xlink:href="#g30" y="14841"/><use xlink:href="#g31" y="14858"/><use xlink:href="#g2" y="14875"/><rect x="16" y="14892" width="32" height="17" class="color3"/><use xlink:href="#g19" y="14892"/><rect x="72" y="14909" width="8" height="17" class="foreground"/><use xlink:href="#g39" y="14909"/></g><g><use xlink:href="#g2" y="15028"/><rect x="16" y="15045" width="32" height="17" class="color3"/><use xlink:href="#g3" y="15045"/><use xlink:href="#g7" y="15062"/><use xlink:href="#g9" y="15079"/><use xlink:href="#g2" y="15096"/><rect x="16" y="15113" width="32" height="17" class="color3"/><use xlink:href="#g19" y="15113"/><use xlink:href="#g22" y="15130"/><use xlink:href="#g23" y="15147"/><use xlink:href="#g24" y="15164"/><use xlink:href="#g25" y="15181"/><use xlink:href="#g23" y="15198"/><use xlink:href="#g26" y="15215"/><use xlink:href="#g27" y="15232"/><use xlink:href="#g28" y="15249"/><use xlink:href="#g29" y="15266"/><use xlink:href="#g30" y="15283"/><use xlink:href="#g31" y="15300"/><use xlink:href="#g2" y="15317"/><rect x="16" y="15334" width="32" height="17" class="color3"/><use xlink:href="#g19" y="15334"/><use xlink:href="#g40" y="15351"/></g><g><use xlink:href="#g2" y="15470"/><rect x="16" y="15487" width="32" height="17" class="color3"/><use xlink:href="#g3" y="15487"/><use xlink:href="#g7" y="15504"/><use xlink:href="#g9" y="15521"/><use xlink:href="#g2" y="15538"/><rect x="16" y="15555" width="32" height="17" class="color3"/><use xlink:href="#g19" y="15555"/><use xlink:href="#g22" y="15572"/><use xlink:href="#g23" y="15589"/><use xlink:href="#g24" y="15606"/><use xlink:href="#g25" y="15623"/><use xlink:href="#g23" y="15640"/><use xlink:href="#g26" y="15657"/><use xlink:href="#g27" y="15674"/><use xlink:href="#g28" y="15691"/><use xlink:href="#g29" y="15708"/><use xlink:href="#g30" y="15725"/><use xlink:href="#g31" y="15742"/><use xlink:href="#g2" y="15759"/><rect x="16" y="15776" width="32" height="17" class="color3"/><use xlink:href="#g41" y="15776"/><use xlink:href="#g40" y="15793"/></g><g><use xlink:href="#g2" y="15912"/><rect x="16" y="15929" width="32" height="17" class="color3"/><use xlink:href="#g3" y="15929"/><use xlink:href="#g7" y="15946"/><use xlink:href="#g9" y="15963"/><use xlink:href="#g2" y="15980"/><rect x="16" y="15997" width="32" height="17" class="color3"/><use xlink:href="#g19" y="15997"/><use xlink:href="#g22" y="16014"/><use xlink:href="#g23" y="16031"/><use xlink:href="#g24" y="16048"/><use xlink:href="#g25" y="16065"/><use xlink:href="#g23" y="16082"/><use xlink:href="#g26" y="16099"/><use xlink:href="#g27" y="16116"/><use xlink:href="#g28" y="16133"/><use xlink:href="#g29" y="16150"/><use xlink:href="#g30" y="16167"/><use xlink:href="#g31" y="16184"/><use xlink:href="#g2" y="16201"/><rect x="16" y="16218" width="32" height="17" class="color3"/><use xlink:href="#g41" y="16218"/><rect x="72" y="16235" width="8" height="17" class="foreground"/><use xlink:href="#g39" y="16235"/></g><g><use xlink:href="#g2" y="16354"/><rect x="16" y="16371" width="32" height="17" class="color3"/><use xlink:href="#g3" y="16371"/><use xlink:href="#g7" y="16388"/><use xlink:href="#g9" y="16405"/><use xlink:href="#g2" y="16422"/><rect x="16" y="16439" width="32" height="17" class="color3"/><use xlink:href="#g19" y="16439"/><use xlink:href="#g22" y="16456"/><use xlink:href="#g23" y="16473"/><use xlink:href="#g24" y="16490"/><use xlink:href="#g25" y="16507"/><use xlink:href="#g23" y="16524"/><use xlink:href="#g26" y="16541"/><use xlink:href="#g27" y="16558"/><use xlink:href="#g28" y="16575"/><use xlink:href="#g29" y="16592"/><use xlink:href="#g30" y="16609"/><use xlink:href="#g31" y="16626"/><use xlink:href="#g2" y="16643"/><rect x="16" y="16660" width="32" height="17" class="color3"/><use xlink:href="#g41" y="16660"/><rect x="112" y="16677" width="8" height="17" class="foreground"/><use xlink:href="#g42" y="16677"/></g><g><use xlink:href="#g2" y="16796"/><rect x="16" y="16813" width="32" height="17" class="color3"/><use xlink:href="#g3" y="16813"/><use xlink:href="#g7" y="16830"/><use xlink:href="#g9" y="16847"/><use xlink:href="#g2" y="16864"/><rect x="16" y="16881" width="32" height="17" class="color3"/><use xlink:href="#g19" y="16881"/><use xlink:href="#g22" y="16898"/><use xlink:href="#g23" y="16915"/><use xlink:href="#g24" y="16932"/><use xlink:href="#g25" y="16949"/><use xlink:href="#g23" y="16966"/><use xlink:href="#g26" y="16983"/><use xlink:href="#g27" y="17000"/><use xlink:href="#g28" y="17017"/><use xlink:href="#g29" y="17034"/><use xlink:href="#g30" y="17051"/><use xlink:href="#g31" y="17068"/><use xlink:href="#g2" y="17085"/><rect x="16" y="17102" width="32" height="17" class="color3"/><use xlink:href="#g41" y="17102"/><rect x="104" y="17119" width="8" height="17" class="foreground"/><use xlink:href="#g43" y="17119"/></g><g><use xlink:href="#g2" y="17238"/><rect x="16" y="17255" width="32" height="17" class="color3"/><use xlink:href="#g3" y="17255"/><use xlink:href="#g7" y="17272"/><use xlink:href="#g9" y="17289"/><use xlink:href="#g2" y="17306"/><rect x="16" y="17323" width="32" height="17" class="color3"/><use xlink:href="#g19" y="17323"/><use xlink:href="#g22" y="17340"/><use xlink:href="#g23" y="17357"/><use xlink:href="#g24" y="17374"/><use xlink:href="#g25" y="17391"/><use xlink:href="#g23" y="17408"/><use xlink:href="#g26" y="17425"/><use xlink:href="#g27" y="17442"/><use xlink:href="#g28" y="17459"/><use xlink:href="#g29" y="17476"/><use xlink:href="#g30" y="17493"/><use xlink:href="#g31" y="17510"/><use xlink:href="#g2" y="17527"/><rect x="16" y="17544" width="32" height="17" class="color3"/><use xlink:href="#g41" y="17544"/><use xlink:href="#g44" y="17561"/><rect x="0" y="17578" width="8" height="17" class="foreground"/><use xlink:href="#g8" y="17578"/></g><g><use xlink:href="#g2" y="17680"/><rect x="16" y="17697" width="32" height="17" class="color3"/><use xlink:href="#g3" y="17697"/><use xlink:href="#g7" y="17714"/><use xlink:href="#g9" y="17731"/><use xlink:href="#g2" y="17748"/><rect x="16" y="17765" width="32" height="17" class="color3"/><use xlink:href="#g19" y="17765"/><use xlink:href="#g22" y="17782"/><use xlink:href="#g23" y="17799"/><use xlink:href="#g24" y="17816"/><use xlink:href="#g25" y="17833"/><use xlink:href="#g23" y="17850"/><use xlink:href="#g26" y="17867"/><use xlink:href="#g27" y="17884"/><use xlink:href="#g28" y="17901"/><use xlink:href="#g29" y="17918"/><use xlink:href="#g30" y="17935"/><use xlink:href="#g31" y="17952"/><use xlink:href="#g2" y="17969"/><rect x="16" y="17986" width="32" height="17" class="color3"/><use xlink:href="#g41" y="17986"/><use xlink:href="#g44" y="18003"/><use xlink:href="#g45" y="18020"/><rect x="0" y="18037" width="8" height="17" class="foreground"/><use xlink:href="#g8" y="18037"/></g><g><use xlink:href="#g2" y="18122"/><rect x="16" y="18139" width="32" height="17" class="color3"/><use xlink:href="#g3" y="18139"/><use xlink:href="#g7" y="18156"/><use xlink:href="#g9" y="18173"/><use xlink:href="#g2" y="18190"/><rect x="16" y="18207" width="32" height="17" class="color3"/><use xlink:href="#g19" y="18207"/><use xlink:href="#g22" y="18224"/><use xlink:href="#g23" y="18241"/><use xlink:href="#g24" y="18258"/><use xlink:href="#g25" y="18275"/><use xlink:href="#g23" y="18292"/><use xlink:href="#g26" y="18309"/><use xlink:href="#g27" y="18326"/><use xlink:href="#g28" y="18343"/><use xlink:href="#g29" y="18360"/><use xlink:href="#g30" y="18377"/><use xlink:href="#g31" y="18394"/><use xlink:href="#g2" y="18411"/><rect x="16" y="18428" width="32" height="17" class="color3"/><use xlink:href="#g41" y="18428"/><use xlink:href="#g44" y="18445"/><use xlink:href="#g45" y="18462"/><rect x="0" y="18479" width="8" height="17" class="foreground"/><use xlink:href="#g1" y="18479"/></g><g><use xlink:href="#g2" y="18564"/><rect x="16" y="18581" width="32" height="17" class="color3"/><use xlink:href="#g3" y="18581"/><use xlink:href="#g7" y="18598"/><use xlink:href="#g9" y="18615"/><use xlink:href="#g2" y="18632"/><rect x="16" y="18649" width="32" height="17" class="color3"/><use xlink:href="#g19" y="18649"/><use xlink:href="#g22" y="18666"/><use xlink:href="#g23" y="18683"/><use xlink:href="#g24" y="18700"/><use xlink:href="#g25" y="18717"/><use xlink:href="#g23" y="18734"/><use xlink:href="#g26" y="18751"/><use xlink:href="#g27" y="18768"/><use xlink:href="#g28" y="18785"/><use xlink:href="#g29" y="18802"/><use xlink:href="#g30" y="18819"/><use xlink:href="#g31" y="18836"/><use xlink:href="#g2" y="18853"/><rect x="16" y="18870" width="32" height="17" class="color3"/><use xlink:href="#g41" y="18870"/><use xlink:href="#g44" y="18887"/><use xlink:href="#g45" y="18904"/><use xlink:href="#g2" y="18921"/><rect x="16" y="18938" width="32" height="17" class="color3"/><use xlink:href="#g46" y="18938"/><rect x="16" y="18955" width="8" height="17" class="foreground"/><use xlink:href="#g4" y="18955"/></g><g><use xlink:href="#g2" y="19006"/><rect x="16" y="19023" width="32" height="17" class="color3"/><use xlink:href="#g3" y="19023"/><use xlink:href="#g7" y="19040"/><use xlink:href="#g9" y="19057"/><use xlink:href="#g2" y="19074"/><rect x="16" y="19091" width="32" height="17" class="color3"/><use xlink:href="#g19" y="19091"/><use xlink:href="#g22" y="19108"/><use xlink:href="#g23" y="19125"/><use xlink:href="#g24" y="19142"/><use xlink:href="#g25" y="19159"/><use xlink:href="#g23" y="19176"/><use xlink:href="#g26" y="19193"/><use xlink:href="#g27" y="19210"/><use xlink:href="#g28" y="19227"/><use xlink:href="#g29" y="19244"/><use xlink:href="#g30" y="19261"/><use xlink:href="#g31" y="19278"/><use xlink:href="#g2" y="19295"/><rect x="16" y="19312" width="32" height="17" class="color3"/><use xlink:href="#g41" y="19312"/><use xlink:href="#g44" y="19329"/><use xlink:href="#g45" y="19346"/><use xlink:href="#g2" y="19363"/><rect x="16" y="19380" width="32" height="17" class="color3"/><use xlink:href="#g46" y="19380"/><rect x="16" y="19397" width="8" height="17" class="foreground"/><use xlink:href="#g4" y="19397"/></g><g><use xlink:href="#g2" y="19448"/><rect x="16" y="19465" width="32" height="17" class="color3"/><use xlink:href="#g3" y="19465"/><use xlink:href="#g7" y="19482"/><use xlink:href="#g9" y="19499"/><use xlink:href="#g2" y="19516"/><rect x="16" y="19533" width="32" height="17" class="color3"/><use xlink:href="#g19" y="19533"/><use xlink:href="#g22" y="19550"/><use xlink:href="#g23" y="19567"/><use xlink:href="#g24" y="19584"/><use xlink:href="#g25" y="19601"/><use xlink:href="#g23" y="19618"/><use xlink:href="#g26" y="19635"/><use xlink:href="#g27" y="19652"/><use xlink:href="#g28" y="19669"/><use xlink:href="#g29" y="19686"/><use xlink:href="#g30" y="19703"/><use xlink:href="#g31" y="19720"/><use xlink:href="#g2" y="19737"/><rect x="16" y="19754" width="32" height="17" class="color3"/><use xlink:href="#g41" y="19754"/><use xlink:href="#g44" y="19771"/><use xlink:href="#g45" y="19788"/><use xlink:href="#g2" y="19805"/><rect x="16" y="19822" width="32" height="17" class="color3"/><use xlink:href="#g46" y="19822"/><use xlink:href="#g47" y="19839"/><rect x="0" y="19856" width="8" height="17" class="foreground"/><use xlink:href="#g8" y="19856"/></g></g></svg>
</svg>